<svg width="78" height="78" viewBox="0 0 78 78" fill="none" xmlns="http://www.w3.org/2000/svg">
<g id="Group 331">
<path id="coolicon" d="M38.9917 54C34.8939 54 34.4109 53.9777 32.8118 53.9055C31.5648 53.8632 30.3339 53.6016 29.1721 53.132C27.1621 52.3249 25.5727 50.6842 24.7912 48.6099C24.3536 47.4068 24.1176 46.1357 24.0933 44.8509C24 43.2043 24 42.6646 24 38.4691C24 34.2288 24.0217 33.7338 24.0933 32.0924C24.1182 30.8093 24.3542 29.54 24.7912 28.3385C25.5718 26.2614 27.1638 24.6194 29.1771 23.8147C30.3409 23.3613 31.5714 23.1171 32.8151 23.0928C34.4059 23 34.9289 23 38.9917 23C43.1227 23 43.5974 23.0223 45.1716 23.0928C46.4185 23.1173 47.6523 23.3615 48.8195 23.8147C50.8323 24.6203 52.4239 26.262 53.2054 28.3385C53.6504 29.5575 53.8877 30.8467 53.9067 32.1491C54 33.7957 54 34.3337 54 38.5275C54 42.7213 53.9767 43.2713 53.9067 44.899C53.8819 46.185 53.6453 47.4573 53.2071 48.6615C52.4236 50.7372 50.8319 52.3785 48.8195 53.1853C47.6539 53.6359 46.4227 53.8794 45.1782 53.9055C43.5875 54 43.0661 54 38.9917 54ZM38.935 25.7208C34.8606 25.7208 34.4375 25.7415 32.8468 25.8154C31.8973 25.8283 30.9569 26.0091 30.0666 26.3499C28.7519 26.869 27.7116 27.9381 27.2032 29.2925C26.8704 30.2211 26.6952 31.202 26.6852 32.1921C26.5969 33.8576 26.5969 34.2941 26.5969 38.4691C26.5969 42.5941 26.6119 43.0943 26.6852 44.7495C26.7001 45.7296 26.8752 46.7 27.2032 47.6199C27.7124 48.9734 28.7525 50.0416 30.0666 50.5607C30.9563 50.9037 31.897 51.0846 32.8468 51.0953C34.4592 51.1915 34.884 51.1915 38.935 51.1915C43.0211 51.1915 43.4442 51.1709 45.0217 51.0953C45.9718 51.0833 46.9128 50.9025 47.8034 50.5607C49.1102 50.0371 50.1437 48.9713 50.6519 47.6233C50.984 46.6939 51.1592 45.7125 51.1699 44.722H51.1882C51.2599 43.0788 51.2599 42.6406 51.2599 38.4416C51.2599 34.2426 51.2415 33.8008 51.1699 32.1594C51.155 31.1805 50.9798 30.2112 50.6519 29.2925C50.1448 27.9425 49.1112 26.8746 47.8034 26.3499C46.913 26.0074 45.9719 25.8266 45.0217 25.8154C43.4109 25.7208 42.9895 25.7208 38.935 25.7208ZM38.9917 46.4081C35.8767 46.4102 33.0673 44.4758 31.8737 41.5069C30.6801 38.5381 31.3374 35.1197 33.5391 32.846C35.7407 30.5723 39.0531 29.8911 41.9313 31.1201C44.8095 32.3491 46.6867 35.2463 46.6874 38.4605C46.6828 42.8452 43.2411 46.3996 38.9917 46.4081ZM38.9917 33.3007C36.2318 33.3007 33.9944 35.6093 33.9944 38.457C33.9944 41.3048 36.2318 43.6134 38.9917 43.6134C41.7516 43.6134 43.9889 41.3048 43.9889 38.457C43.9825 35.612 41.7489 33.3073 38.9917 33.3007ZM46.9872 32.0752C45.9968 32.0714 45.1964 31.2409 45.1982 30.2189C45.2001 29.197 46.0035 28.3695 46.9939 28.3695C47.9843 28.3695 48.7877 29.1969 48.7896 30.2189C48.79 30.7119 48.6002 31.1849 48.262 31.5332C47.9238 31.8815 47.4651 32.0766 46.9872 32.0752Z" fill="#C6A48C"/>
<circle id="Ellipse 35" cx="39" cy="39" r="38.5" stroke="#D8C3B8"/>
</g>
</svg>
