<svg width="78" height="78" viewBox="0 0 78 78" fill="none" xmlns="http://www.w3.org/2000/svg">
<g id="Group 330">
<path id="wa" fill-rule="evenodd" clip-rule="evenodd" d="M23.593 53.9733L25.7898 48.2478C15.1909 27.751 37.4188 16.9901 48.5914 26.4912C62.8835 38.3332 51.8011 62.8817 29.856 52.4989C29.805 52.4747 29.5056 52.308 29.5454 52.2952C31.7646 51.5795 41.7569 48.7595 43.6415 48.0018C43.7344 47.9647 44.5832 47.9495 45.1421 47.7213C47.07 46.9052 47.8392 45.6267 48.3776 44.0209C48.6568 43.1879 48.3359 43.1459 47.5878 42.8178L44.4615 41.4463C43.7056 41.1149 43.266 40.7487 42.7651 41.3682L41.7898 42.8406C41.4792 43.2448 40.9587 43.6233 40.284 43.3875C37.3936 42.3778 36.1302 41.2952 34.3695 38.5847C34.0557 38.1018 34.0667 37.2623 34.4402 36.8754L35.6476 35.7026C35.9752 35.4233 35.9609 34.957 35.8027 34.5792L34.3544 31.1254C34.1633 30.3724 33.5521 29.9792 32.8675 30.1481C29.8501 30.8928 28.4762 33.2705 29.3062 36.8548C31.3885 42.1486 35.7197 46.45 43.6415 48.0018C43.6537 48.0042 43.6452 48.001 43.6303 48.0067C43.6033 48.0175 43.5391 48.0447 43.4375 48.0835C41.4873 48.8275 25.9088 53.3593 23.593 53.9733Z" fill="#C6A48C"/>
<circle id="Ellipse 34" cx="39" cy="39" r="38.5" stroke="#D8C3B8"/>
</g>
</svg>
